<?xml version="1.0"?>
<!DOCTYPE svg PUBLIC "-//W3C//DTD SVG 1.0//EN" "http://www.w3.org/TR/2001/REC-SVG-20010904/DTD/svg10.dtd">
<svg xmlns="http://www.w3.org/2000/svg" xmlns:xlink="http://www.w3.org/1999/xlink" xmlns:sodipodi="http://sodipodi.sourceforge.net/DTD/sodipodi-0.dtd" xmlns:inkscape="http://www.inkscape.org/namespaces/inkscape" xmlns:realworld="http://www.rw-designer.com/export-svg" width="252px" height="257px">
  <g>
    <path d="M 186.633 130.001C 186.633 166.128 158.851 195.414 124.58 195.414C 90.3089 195.414 62.527 166.128 62.527 130.001C 62.527 93.8744 90.3089 64.5887 124.58 64.5887C 158.851 64.5887 186.633 93.8743 186.633 130.001 z" fill="#333333" fill-rule="evenodd" stroke="#00914d" stroke-width="9.49778" />
    <path d="M 146.599 130.001C 146.599 142.687 136.741 152.971 124.58 152.971C 112.419 152.971 102.561 142.687 102.561 130.001C 102.561 117.315 112.419 107.032 124.58 107.032C 136.741 107.032 146.599 117.315 146.599 130.001 z" fill="#000000" fill-rule="evenodd" stroke="#009179" stroke-width="9.49778" />
  </g>
  <g>
    <path d="M 68.4401 107.036L 28.1442 84.8165L 44.6033 55.0976L 84.8994 77.3172C 84.8994 77.3172 68.4401 107.036 68.4401 107.036 z" fill="#333333" fill-rule="evenodd" stroke="#009091" stroke-width="9.49778" />
    <path d="M 87.049 71.6794L 70.3485 28.8693L 102.06 16.5525L 118.76 59.3626C 118.76 59.3626 87.049 71.6794 87.049 71.6794 z" fill="#333333" fill-rule="evenodd" stroke="#009091" stroke-width="9.49778" />
    <path d="M 127.111 59.4391L 141.857 15.9202L 174.094 26.7955L 159.348 70.3144C 159.348 70.3144 127.111 59.4391 127.111 59.4391 z" fill="#333333" fill-rule="evenodd" stroke="#009091" stroke-width="9.49778" />
    <path d="M 165.067 75.7979L 200.373 46.3149L 222.213 72.3543L 186.906 101.837C 186.906 101.837 165.067 75.7979 165.067 75.7979 z" fill="#333333" fill-rule="evenodd" stroke="#009091" stroke-width="9.49778" />
    <path d="M 190.273 106.537L 236.301 105.539L 237.041 139.486L 191.012 140.483C 191.012 140.483 190.273 106.537 190.273 106.537 z" fill="#333333" fill-rule="evenodd" stroke="#009091" stroke-width="9.49778" />
  </g>
  <g>
    <path d="M 185.736 147.237L 226.031 169.457L 209.572 199.176L 169.277 176.957C 169.277 176.957 185.736 147.237 185.736 147.237 z" fill="#333333" fill-rule="evenodd" stroke="#009173" stroke-width="9.49778" />
    <path d="M 167.127 182.594L 183.827 225.405L 152.116 237.721L 135.415 194.911C 135.415 194.911 167.127 182.594 167.127 182.594 z" fill="#333333" fill-rule="evenodd" stroke="#009173" stroke-width="9.49778" />
    <path d="M 127.064 194.834L 112.318 238.353L 80.0819 227.478L 94.8278 183.96C 94.8278 183.96 127.064 194.834 127.064 194.834 z" fill="#333333" fill-rule="evenodd" stroke="#009173" stroke-width="9.49778" />
    <path d="M 89.1093 178.476L 53.8024 207.959L 31.9628 181.919L 67.2698 152.437C 67.2698 152.437 89.1093 178.476 89.1093 178.476 z" fill="#333333" fill-rule="evenodd" stroke="#009173" stroke-width="9.49778" />
    <path d="M 63.9029 147.737L 17.8742 148.735L 17.1347 114.789L 63.1634 113.79C 63.1634 113.79 63.9029 147.737 63.9029 147.737 z" fill="#333333" fill-rule="evenodd" stroke="#009173" stroke-width="9.49778" />
  </g>
</svg>
