<svg version="1.1" xmlns="http://www.w3.org/2000/svg" xmlns:xlink="http://www.w3.org/1999/xlink" width="196.5" height="120.5" viewBox="0,0,196.5,120.5"><g transform="translate(-140.25,-119.75)"><g data-paper-data="{&quot;isPaintingLayer&quot;:true}" fill-rule="nonzero" stroke-linejoin="miter" stroke-miterlimit="10" stroke-dasharray="" stroke-dashoffset="0" style="mix-blend-mode: normal"><path d="M158,235.5v-111h164v111z" fill="#000000" stroke="#3e3e3e" stroke-width="9.5" stroke-linecap="butt"/><path d="M214,197.5c0,10.21727 -6.71573,18.5 -15,18.5c-8.28427,0 -15,-8.28273 -15,-18.5c0,-10.21727 6.71573,-18.5 15,-18.5c8.28427,0 15,8.28273 15,18.5z" fill="#00ca25" stroke="#008618" stroke-width="3" stroke-linecap="butt"/><path d="M293,195c0,10.49341 -5.8203,19 -13,19c-7.1797,0 -13,-8.50659 -13,-19c0,-10.49341 5.8203,-19 13,-19c7.1797,0 13,8.50659 13,19z" fill="#00ca25" stroke="#008618" stroke-width="3" stroke-linecap="butt"/><path d="M312,134l-56,52l-8,-5l-10,18l-19,-18l-41,-32l-14,-19" fill="none" stroke="#008618" stroke-width="9.5" stroke-linecap="round"/><path d="M145,168v-24h187v24z" fill="#00ca25" stroke="#008618" stroke-width="9.5" stroke-linecap="butt"/></g></g></svg>